<svg version="1.2" xmlns="http://www.w3.org/2000/svg" viewBox="0 0 620 648" width="620" height="648"><style>.a{fill:#9d9fa2}</style><path fill-rule="evenodd" class="a" d="m415.1 84.3c109.8-10 202.4 76.6 202.4 184.4v173.9c0 20.1-16.3 36.4-36.4 36.4h-297.4c-20.1 0-36.4-16.3-36.4-36.4v-169.7c0-96.3 71.9-179.8 167.8-188.6zm-94.9 184.4v129.9c1.3-0.1 2.6-0.4 4-0.4h220.4v-126.5c0-55.3-38.7-104.7-93.2-113.7-70.2-11.6-131.2 42.6-131.2 110.7z"/><path class="a" d="m577.1 2.7h-533.2c-22.4 0-40.4 18.1-40.4 40.4 0 22.4 18 40.5 40.4 40.5 22.3 0 40.4 18 40.4 40.4v314.6c0 22.3 18.1 40.4 40.4 40.4 22.3 0 40.4-18.1 40.4-40.4v-314.6c0-22.4 18.1-40.4 40.4-40.4h226.9 144.7c22.3 0 40.4-18.1 40.4-40.5 0-22.3-18.1-40.4-40.4-40.4z"/><path class="a" d="m70 582.7h3.7c5 0 9.2 4.1 9.2 9.2v42.1c0 5.1 4.1 9.2 9.2 9.2h2.4c5.1 0 9.2-4.1 9.2-9.2v-42.1c0-5.1 4.1-9.2 9.2-9.2h3.6c5.1 0 9.2-4.1 9.2-9.2 0-5.1-4.1-9.2-9.2-9.2h-46.5c-5.1 0-9.2 4.1-9.2 9.2 0 5.1 4.1 9.2 9.2 9.2z"/><path class="a" d="m198.7 607.1l-8.9-42.8h-20.6l-8.2 42-9.7-42h-22l22.4 78.9h18.5l9.2-45 9.3 45h19l22.2-78.9h-21.4z"/><path fill-rule="evenodd" class="a" d="m294.1 571.5c7.9 7.1 11.9 18 11.9 32.2 0 13.9-4 24.7-11.9 32.2-6.1 6.2-14.8 9.4-26 9.4-11.2 0-20-3.2-26-9.4-7.9-7.4-11.9-18.3-11.9-32.2 0-14.2 4-25.1 12-32.3 6-6.2 14.7-9.3 25.9-9.3 11.2 0 20 3.1 26 9.4zm-13.6 49.7c3.2-4 4.8-9.9 4.8-17.5 0-7.6-1.6-13.5-4.8-17.5-3.1-3.8-7.1-5.7-12.4-5.7-5.3 0-9.3 1.9-12.5 5.7-3.2 4-4.8 9.9-4.8 17.5 0 7.6 1.6 13.5 4.8 17.5 3.2 3.8 7.2 5.7 12.5 5.7 5.3 0 9.3-1.9 12.4-5.7z"/><path fill-rule="evenodd" class="a" d="m399.8 589.2c0.9 4.5 1.4 8.8 1.4 12.8 0 10.2-2.1 19-6.2 26.2-5.8 10-14.9 15-27 15h-25.2c-5.1 0-9.2-4.1-9.2-9.2v-60.5c0-5.1 4.1-9.2 9.2-9.2h25.2c4.9 0.1 8.9 0.7 12.2 1.8 5.7 1.8 10.4 5.3 13.9 10.3 2.7 3.9 4.7 8.2 5.7 12.8zm-22.7-2c-1.9-3.2-5.7-4.7-11.7-4.7h-11.5v42.6h11.5c6.2 0 10.2-2.9 12.7-9 1.4-3.6 2.1-8 2.1-13.1 0-6.9-1-12.3-3.1-15.8z"/><path class="a" d="m428.2 611.1h35.7v-18.1h-35.7v-10.3h38.9v-18.4h-59.3v78.9h61.1v-18.6h-40.7z"/><path class="a" d="m530.7 601.9c-3.2-2.5-7.7-4.4-13.8-5.8l-12.9-3.1c-6.1-1.4-8.3-2.3-9.1-2.7-1.5-0.9-2.2-1.9-2.2-3.6 0-1.9 0.8-3.3 2.5-4.4 1.9-1.3 4.7-2 8.2-2 3.2 0 5.9 0.6 7.9 1.6 2.8 1.4 4.3 3.7 4.5 7.2l0.1 2.5h20.1l-0.1-2.8c-0.3-8.6-3.6-15.3-9.8-19.9-6-4.5-13.2-6.7-21.7-6.7-10 0-17.8 2.4-23.1 7.2-5.4 4.9-8.2 11.1-8.2 18.4 0 8.1 2.9 14.2 8.6 18.1 3.3 2.3 8.9 4.3 17.1 6.1l8 1.7c4.3 1 7.5 2 9.3 3.1 1.4 0.9 2 1.9 2 3.4 0 2-0.6 4.5-4.8 6-2 0.7-4.7 1-8.1 1-5.3 0-9.1-1.2-11-3.5q-1.6-2-2.2-6.2l-0.4-2.3h-19.7v2.7c0 8.4 3.2 15.2 9.4 20.1 6 4.7 14.2 7.1 24.5 7.1 10.1 0 18.1-2.4 23.7-7.3 5.8-4.9 8.8-11.2 8.8-18.8 0-7.3-2.6-13.1-7.6-17.1z"/><path class="a" d="m616.5 564.3h-27.5l-24.6 26.2v-26.2h-20.5v78.9h20.5v-26.1l4.4-4.5 21.6 30.6h26.4l-33.5-45.7z"/></svg>