<svg version="1.2" xmlns="http://www.w3.org/2000/svg" viewBox="0 0 1492 176" width="1492" height="176"><style>.a{fill:#9d9fa2}</style><path fill-rule="evenodd" class="a" d="m150 31.8c39.2-3.5 72.2 27.4 72.2 65.8v62.1c0 7.2-5.8 13-13 13h-106.1c-7.2 0-13-5.8-13-13v-60.6c0-34.3 25.7-64.1 59.9-67.3zm-33.9 65.8v46.4c0.5-0.1 0.9-0.2 1.4-0.2h78.7v-45.1c0-19.7-13.8-37.4-33.3-40.6-25-4.1-46.8 15.2-46.8 39.5z"/><path class="a" d="m207.8 2.7h-190.3c-8 0-14.4 6.5-14.4 14.4 0 8 6.4 14.5 14.4 14.5 8 0 14.4 6.4 14.4 14.4v112.3c0 7.9 6.5 14.4 14.5 14.4 7.9 0 14.4-6.5 14.4-14.4v-112.3c0-8 6.4-14.4 14.4-14.4h81 51.6c8 0 14.4-6.5 14.4-14.5 0-7.9-6.4-14.4-14.4-14.4z"/><path class="a" d="m372.9 44.9h7.5c10.4 0 18.8 8.4 18.8 18.8v86c0 10.4 8.4 18.8 18.8 18.8h5c10.4 0 18.8-8.4 18.8-18.8v-86c0-10.4 8.4-18.8 18.8-18.8h7.3c10.4 0 18.8-8.4 18.8-18.8 0-10.4-8.4-18.8-18.8-18.8h-95c-10.4 0-18.8 8.4-18.8 18.8 0 10.4 8.4 18.8 18.8 18.8z"/><path class="a" d="m635.8 94.7l-18.1-87.4h-42.1l-16.8 85.7-19.8-85.7h-44.9l45.7 161.2h37.7l19-91.9 19 91.9h38.7l45.3-161.2h-43.5z"/><path fill-rule="evenodd" class="a" d="m830.8 21.9c16.1 14.6 24.3 36.8 24.3 65.8 0 28.4-8.2 50.5-24.3 65.9-12.4 12.7-30.3 19.1-53.1 19.1-22.9 0-40.8-6.5-53.2-19.2-16.1-15.2-24.4-37.4-24.4-65.8 0-29 8.3-51.2 24.7-66 12.1-12.5 30-19 52.9-19 22.9 0 40.8 6.5 53.1 19.2zm-27.8 101.5c6.5-8.1 9.8-20.1 9.8-35.7 0-15.5-3.3-27.5-9.8-35.7-6.3-7.9-14.5-11.7-25.3-11.7-10.8 0-19.1 3.8-25.5 11.7-6.6 8.1-9.9 20.2-9.9 35.7 0 15.6 3.3 27.6 9.9 35.7 6.4 7.9 14.7 11.7 25.5 11.7 10.8 0 19-3.8 25.3-11.7z"/><path fill-rule="evenodd" class="a" d="m1046.7 58.2c1.9 9.1 2.9 17.8 2.9 26 0 20.9-4.3 38.9-12.7 53.6-11.9 20.4-30.5 30.7-55.2 30.7h-51.4c-10.4 0-18.8-8.4-18.8-18.8v-123.6c0-10.4 8.4-18.8 18.8-18.8h51.4c10.1 0.2 18.3 1.3 25 3.5 11.6 3.9 21.2 11 28.4 21.2 5.6 8 9.5 16.8 11.6 26.2zm-46.4-4.2c-3.8-6.5-11.6-9.6-23.9-9.6h-23.5v87.1h23.5c12.7 0 20.9-5.9 26-18.5 2.9-7.3 4.4-16.3 4.4-26.6 0-14.2-2.2-25.2-6.5-32.4z"/><path class="a" d="m1104.8 102.9h72.9v-37.1h-72.9v-20.9h79.5v-37.6h-121.2v161.2h124.9v-38h-83.2z"/><path class="a" d="m1314.1 84.1c-6.4-5.1-15.6-9-28.1-11.9l-26.4-6.2c-12.6-3-17-4.8-18.6-5.7-3.1-1.7-4.4-3.9-4.4-7.2 0-4.1 1.5-6.8 4.9-9.1 4-2.7 9.7-4 16.8-4 6.6 0 12.1 1.1 16.3 3.2 5.7 2.9 8.6 7.6 9.1 14.7l0.3 5.1h41l-0.2-5.6c-0.6-17.7-7.3-31.4-20-40.8-12.2-9.1-27.1-13.7-44.3-13.7-20.5 0-36.4 5-47.3 14.8-11.1 10-16.7 22.6-16.7 37.6 0 16.6 5.9 29 17.6 37 6.7 4.6 18.1 8.7 34.9 12.4l16.3 3.6c8.9 1.9 15.3 4 19.1 6.3 2.8 1.7 4 3.8 4 6.9 0 4.1-1.1 9.2-9.8 12.2-4.1 1.4-9.7 2.1-16.6 2.1-10.9 0-18.5-2.4-22.5-7.3-2.2-2.6-3.7-6.8-4.5-12.6l-0.7-4.7h-40.2v5.5c0 17.3 6.4 31.1 19.1 41.1 12.2 9.7 29.1 14.6 50 14.6 20.7 0 37-5 48.6-14.9 11.8-10.1 17.8-23 17.8-38.4 0-15.1-5.2-26.9-15.5-35z"/><path class="a" d="m1489.4 7.3h-56.2l-50.2 53.5v-53.5h-41.9v161.2h41.9v-53.5l8.9-9 44.2 62.5h54l-68.4-93.4z"/></svg>