<svg version="1.2" xmlns="http://www.w3.org/2000/svg" viewBox="0 0 624 484" width="624" height="484"><style>.a{fill:#9d9fa2}</style><path fill-rule="evenodd" class="a" d="m418.2 83.3c110.6-10 203.9 77.1 203.9 185.7v175.2c0 20.3-16.5 36.7-36.7 36.7h-299.5c-20.3 0-36.7-16.4-36.7-36.7v-170.9c0-97 72.4-181.2 169-190zm-95.6 185.7v130.9c1.3-0.1 2.6-0.4 4-0.4h222.1v-127.5c0-55.6-39-105.4-94-114.5-70.7-11.6-132.1 42.9-132.1 111.5z"/><path class="a" d="m581.4 1.1h-537.1c-22.5 0-40.7 18.3-40.7 40.7 0 22.5 18.2 40.7 40.7 40.7 22.4 0 40.7 18.3 40.7 40.8v316.9c0 22.5 18.2 40.7 40.7 40.7 22.5 0 40.7-18.2 40.7-40.7v-316.9c0-22.5 18.2-40.8 40.7-40.8h228.5 145.8c22.4 0 40.7-18.2 40.7-40.7 0-22.4-18.3-40.7-40.7-40.7z"/></svg>